# xmcd
#
# Track frame offsets:
#	150
#	7036
#	29970
#	48315
#	75748
#	94078
#	116014
#	133848
#	158593
#	180496
#	205052
#	226155
#	250205
#	272150
#	290320
#	332248
#
# Disc length: 4513 seconds
#
# Revision: 1
# Processed by: cddbd v1.5.1PL2 Copyright (c) Steve Scherf et al.
# Submitted via: EasyCDDAExtractor 8.0.2.1
#
DISCID=df119f10
DTITLE=Dio - The Spring and Airbrake Belfast 26-10-05 Disc 1
DYEAR=2005
DGENRE=Hard Rock
TTITLE0=Intro
TTITLE1=Tarot Woman
TTITLE2=The Sign Of The Southern Cross
TTITLE3=One Night In The City
TTITLE4=Stand Up And Shout
TTITLE5=Holy Diver
TTITLE6=Gypsy
TTITLE7=Drum Solo
TTITLE8=Caught In The Middle
TTITLE9=Don't Talk To Strangers
TTITLE10=Straight Through The Heart
TTITLE11=Invisible
TTITLE12=Rainbow In The Dark
TTITLE13=Shame On The Night
TTITLE14=Guitar Solo
TTITLE15=Holy Diver Reprise
EXTD=
EXTT0=
EXTT1=
EXTT2=
EXTT3=
EXTT4=
EXTT5=
EXTT6=
EXTT7=
EXTT8=
EXTT9=
EXTT10=
EXTT11=
EXTT12=
EXTT13=
EXTT14=
EXTT15=
PLAYORDER=
